<?xml version="1.0" encoding="utf-8"?>
<!-- Generator: Adobe Illustrator 24.3.0, SVG Export Plug-In . SVG Version: 6.00 Build 0)  -->
<svg version="1.1" id="Layer_1" xmlns="http://www.w3.org/2000/svg" xmlns:xlink="http://www.w3.org/1999/xlink" x="0px" y="0px"
	 viewBox="0 0 406.7 223.4" style="enable-background:new 0 0 406.7 223.4;" xml:space="preserve">
<g>
	<g>
		<path d="M7.6,16.7V0h90.5L26.5,155h68.1v16.7H0l72.2-155H7.6z"/>
		<path d="M240.2,126.7l13.7,7.3c-4.4,8.9-9.6,16-15.5,21.4c-5.9,5.4-12.6,9.5-20,12.3c-7.4,2.8-15.8,4.2-25.1,4.2
			c-20.7,0-36.8-6.8-48.5-20.3c-11.7-13.5-17.5-28.8-17.5-45.9c0-16.1,4.9-30.5,14.8-43.1c12.5-16.1,29.3-24.1,50.4-24.1
			c21.5,0,38.8,8.2,51.7,24.7c9.2,11.6,13.8,26,13.9,43.3H144c0.3,14.8,5,27,14.1,36.4c9.1,9.5,20.3,14.2,33.7,14.2
			c6.5,0,12.8-1.1,18.9-3.4c6.1-2.3,11.3-5.3,15.6-9C230.6,141.1,235.2,135.1,240.2,126.7z M240.2,92.6c-2.2-8.7-5.3-15.7-9.5-20.9
			c-4.2-5.2-9.7-9.4-16.6-12.6c-6.9-3.2-14.1-4.8-21.6-4.8c-12.4,0-23.1,4-32.1,12c-6.5,5.9-11.4,14.6-14.7,26.3H240.2z"/>
		<path d="M295.5,123.7l-0.2-13.5c-0.2-6.6,0-12.3,0.8-16.9c1.7-14.6,5.4-25.3,11.1-32.1c5.6-5.9,11.2-10.5,17-13.8
			c9.6-4.1,20.5-6,32.8-5.8c9.6,0,18.4,2.4,26.6,7.2c8.1,4.8,13.9,11.3,17.4,19.4c3.5,8.1,5.2,20.9,5.2,38.3v65.3h-16.2v-60.5
			c0-14.7-0.6-24.5-1.9-29.4c-1.9-8.4-5.7-14.4-11.5-17.9c-5.7-3.5-14.2-5.3-25.3-5.3c-9.9,0-18.7,2.9-26.4,8.6
			c-7.7,5.7-11.3,13.5-10.8,23.4c-1.5,6.3-2.2,17.9-2.2,34.6v46.5h-16.4V123.7z"/>
	</g>
	<g>
		<path d="M2.5,190.9v31l-1.2,1.5H1.1V192C1.7,191.2,2.2,190.9,2.5,190.9z"/>
		<path d="M35.2,197.2h0.9c5,0,9.1,2.6,12.2,7.7c1,2.2,1.5,4.3,1.6,6.1l-0.1,2.7v8.3l-1.2,1.4h-0.1v-12c0-5.2-2.6-9.1-7.7-11.8
			c-1.7-0.6-3.2-0.9-4.3-0.9h-1.6c-2.1,0-4.2,0.7-6.3,2.2v21.2l-1.2,1.3h-0.1V200C29.7,198.2,32.3,197.2,35.2,197.2z"/>
		<path d="M82.1,197.2H83c5,0,9.1,2.6,12.2,7.7c1,2.2,1.5,4.3,1.6,6.1l-0.1,2.7v8.3l-1.2,1.4h-0.1v-12c0-5.2-2.6-9.1-7.7-11.8
			c-1.7-0.6-3.2-0.9-4.3-0.9h-1.6c-2.1,0-4.2,0.7-6.3,2.2v21.2l-1.2,1.3h-0.1V200C76.6,198.2,79.2,197.2,82.1,197.2z"/>
		<path d="M134,197.4L134,197.4c5.2,0,9.2,2.5,11.9,7.6c0.7,1.8,1.1,3.6,1.1,5.3v0.1c0,5.1-2.5,9.1-7.6,11.8
			c-1.8,0.7-3.6,1.1-5.3,1.1H134c-5.1,0-9.1-2.5-11.8-7.6c-0.7-1.8-1.1-3.6-1.1-5.3v-0.1c0-5.1,2.5-9.1,7.6-11.8
			C130.5,197.8,132.3,197.4,134,197.4z M122.5,210.4c0,4.4,2.2,7.9,6.6,10.4c1.7,0.7,3.4,1.1,5.2,1.1c4,0,7.3-1.9,9.8-5.7
			c1.1-1.9,1.6-3.8,1.6-5.7v-0.4c0-4-1.9-7.2-5.6-9.7c-1.8-1.1-3.8-1.7-6.1-1.7c-4.1,0-7.3,1.9-9.8,5.6
			C123,206.2,122.5,208.2,122.5,210.4z"/>
		<path d="M194.4,197.1c0.4,0.8,0.6,1.4,0.6,1.7l-11,24.7h-1.4c-0.3-0.4-4-8.6-11.1-24.8c0.4-0.8,0.7-1.2,0.8-1.2
			c0.3,0.3,3.9,8.4,10.9,24.4c0.4-0.4,3.8-8.2,10.4-23.3L194.4,197.1z"/>
		<path d="M232.1,197.2h0.5c3.1,0,5.9,1.2,8.5,3.5v19c-2.5,2.4-5.4,3.6-8.9,3.6h-0.4c-4.3,0-7.9-2-10.8-6.1c-1.3-2.2-2-4.6-2-7
			c0-4.7,2.1-8.4,6.4-11.3C227.6,197.8,229.8,197.2,232.1,197.2z M231.6,198.6c-3.6,0-6.7,1.8-9.2,5.5c-1.1,1.8-1.7,3.9-1.7,6.1v0.1
			c0,4.6,2.4,8.2,7.1,10.7c1.6,0.5,2.9,0.8,3.9,0.8h1c2.7,0,5.1-1,7.3-2.9v-17.6c-2.5-1.9-5.1-2.8-7.7-2.8l-0.3,0.1v-0.1l-0.1,0.1
			H231.6z"/>
		<path d="M268,192.2h0.1v7.9h9.3c0.5,0.5,0.8,0.9,0.8,1.3h-10.1v4.8c0,4.9,0.7,8.1,2.1,9.8c0.5,1.1,1.6,2.4,3.1,3.8
			c2.1,1.4,3.8,2.2,4.9,2.4l0.3,0.1l0.1,0.1c0.2,0,0.3,0.1,0.3,0.2v0.1l-0.5,0.8h-0.2c-1.5,0-3.7-1.2-6.6-3.5c-3.4-3.6-5-7.5-5-11.9
			v-14C266.7,193.6,267.1,192.9,268,192.2z"/>
		<path d="M304.8,192.3h0.1c0.6,0.1,0.9,0.4,0.9,0.9v0.4c-0.2,0.4-0.5,0.6-0.9,0.6h-0.1c-0.6-0.1-0.9-0.4-0.9-0.9v-0.1
			C303.9,192.6,304.3,192.3,304.8,192.3z M305.1,197.1l0.1,0.1v3.7l0.1,12.6c0.5,3,1.5,5.4,3,7.3l1.3,1.4v0.1c0,0.3-0.2,0.6-0.5,1.1
			c-3.4-3.1-5.1-6.8-5.1-11.1v-14.2C304,197.9,304.4,197.6,305.1,197.1z"/>
		<path d="M346.7,197.4L346.7,197.4c5.2,0,9.2,2.5,11.9,7.6c0.7,1.8,1.1,3.6,1.1,5.3v0.1c0,5.1-2.5,9.1-7.6,11.8
			c-1.8,0.7-3.6,1.1-5.3,1.1h-0.1c-5.1,0-9.1-2.5-11.8-7.6c-0.7-1.8-1.1-3.6-1.1-5.3v-0.1c0-5.1,2.5-9.1,7.6-11.8
			C343.2,197.8,345,197.4,346.7,197.4z M335.1,210.4c0,4.4,2.2,7.9,6.6,10.4c1.7,0.7,3.4,1.1,5.2,1.1c4,0,7.3-1.9,9.8-5.7
			c1.1-1.9,1.6-3.8,1.6-5.7v-0.4c0-4-1.9-7.2-5.6-9.7c-1.8-1.1-3.8-1.7-6.1-1.7c-4.1,0-7.3,1.9-9.8,5.6
			C335.7,206.2,335.1,208.2,335.1,210.4z"/>
		<path d="M392,197.2h0.9c5,0,9.1,2.6,12.2,7.7c1,2.2,1.5,4.3,1.6,6.1l-0.1,2.7v8.3l-1.2,1.4h-0.1v-12c0-5.2-2.6-9.1-7.7-11.8
			c-1.7-0.6-3.2-0.9-4.3-0.9h-1.6c-2.1,0-4.2,0.7-6.3,2.2v21.2l-1.2,1.3H384V200C386.5,198.2,389.1,197.2,392,197.2z"/>
	</g>
</g>
</svg>
