<?xml version="1.0" encoding="utf-8"?>
<!-- Generator: Adobe Illustrator 24.3.0, SVG Export Plug-In . SVG Version: 6.00 Build 0)  -->
<svg version="1.1" id="Layer_1" xmlns="http://www.w3.org/2000/svg" xmlns:xlink="http://www.w3.org/1999/xlink" x="0px" y="0px"
	 viewBox="0 0 288.8 288.8" style="enable-background:new 0 0 288.8 288.8;" xml:space="preserve">
<style type="text/css">
	.st0{fill:#624F77;}
	.st1{fill:#FFFFFF;}
</style>
<g>
	<path class="st0" d="M220.4,253.4c-28.8,0-52.1-23.3-52.1-52.1c0-28.8,23.3-52.1,52.1-52.1s52.1,23.3,52.1,52.1
		c0,4.5-0.6,8.8-1.6,12.9c11.4-20.7,18-44.5,18-69.8C288.8,64.7,224.2,0,144.4,0S0,64.7,0,144.4s64.7,144.4,144.4,144.4
		c40.1,0,76.3-16.3,102.5-42.7C239.1,250.7,230.1,253.4,220.4,253.4z"/>
	<path class="st1" d="M221.6,74.2c-4.4-13.5-15.4-24.9-21.9-30.7c-6.6-5.9-18.2-12.3-37.8-15.2c-14.2-2.2-25.1,0.4-36.4,3.1
		c-12.7,3-22.5,7.3-27.7,9.9c13.3,4.1,23,16.8,23,31.7c0,18.3-14.5,33.2-32.4,33.2c-17.1,0-31-13.5-32.3-30.7
		c-5.7,7.2-14.3,19.5-20.8,36.6c-8.5,22.6-8.9,41.4-9,45.9c0,5.2,0.1,24.7,9,47.7c9.4,24.6,23.5,40.2,29.9,46.5
		c4.6,4.6,16.6,15.9,35.2,25.1c12.7,6.2,24.3,9.4,32.8,11c-1.4-0.7-3.2-1.7-5.4-3.1c-1.5-1-9-5.8-16.1-14.7
		c-3.1-3.9-10.9-13.8-14.3-29.4c-3.6-16.5-0.2-29.5,0.6-32.4c1.4-4.9,3.8-13.3,10.7-21.4c7.5-8.8,16.8-13,21.2-15
		c3.6-1.6,8.4-3.4,10.7-4.3c2.2-0.8,4.6-1.7,12.5-4.3c10.3-3.4,10.3-3.3,14-4.6c6.2-2.1,10.8-3.7,16.1-6.1
		c6.4-2.9,12.8-5.8,19.7-11.6c3.5-2.9,8.8-7.5,13.1-15.3c3.8-6.9,5-12.9,6-17.7C223.8,100.3,226.2,87.9,221.6,74.2z"/>
</g>
</svg>
