<?xml version="1.0" encoding="utf-8"?>
<!-- Generator: Adobe Illustrator 24.3.0, SVG Export Plug-In . SVG Version: 6.00 Build 0)  -->
<svg version="1.1" id="Layer_1" xmlns="http://www.w3.org/2000/svg" xmlns:xlink="http://www.w3.org/1999/xlink" x="0px" y="0px"
	 viewBox="0 0 1153.1 470" style="enable-background:new 0 0 1153.1 470;" xml:space="preserve">
<style type="text/css">
	.st0{fill:#624F77;}
	.st1{fill:#FFFFFF;}
</style>
<g>
	<path class="st0" d="M358.6,412.4c-46.8,0-84.8-38-84.8-84.8c0-46.8,38-84.8,84.8-84.8s84.8,38,84.8,84.8c0,7.3-0.9,14.3-2.6,21
		C459.4,314.9,470,276.2,470,235C470,105.2,364.8,0,235,0S0,105.2,0,235s105.2,235,235,235c65.2,0,124.2-26.6,166.8-69.5
		C389.1,408,374.4,412.4,358.6,412.4z"/>
	<path class="st1" d="M360.7,120.8c-7.2-21.9-25-40.5-35.6-49.9c-10.8-9.5-29.6-20-61.5-24.8c-23.1-3.5-40.8,0.7-59.3,5
		c-20.7,4.8-36.6,11.9-45.2,16.1c21.6,6.7,37.4,27.3,37.4,51.7c0,29.8-23.6,54-52.7,54c-27.7,0-50.5-22-52.5-49.9
		c-9.3,11.7-23.3,31.8-33.8,59.6C43.6,219.2,43,249.9,43,257.2c-0.1,8.5,0.2,40.1,14.6,77.7c15.3,40.1,38.3,65.4,48.6,75.7
		c7.5,7.5,27,25.9,57.3,40.8c20.7,10.1,39.5,15.2,53.4,17.9c-2.2-1.1-5.3-2.8-8.7-5c-2.5-1.6-14.7-9.5-26.2-23.9
		c-5.1-6.3-17.8-22.5-23.3-47.8c-5.9-26.8-0.3-48.1,1-52.8c2.2-8,6.2-21.7,17.5-34.9c12.3-14.3,27.3-21.1,34.5-24.4
		c5.9-2.7,13.6-5.5,17.5-7c3.6-1.3,7.5-2.7,20.4-7c16.7-5.5,16.7-5.4,22.8-7.5c10.1-3.5,17.6-6.1,26.2-10
		c10.4-4.7,20.8-9.4,32.1-18.9c5.6-4.8,14.3-12.2,21.4-24.9c6.2-11.2,8.2-20.9,9.7-28.9C364.2,163.2,368.1,143.1,360.7,120.8z"/>
	<g>
		<path d="M503.8,122.6V95.4h147.3L534.5,347.7h110.8v27.1H491.3l117.5-252.2H503.8z"/>
		<path d="M882.3,301.7l22.2,11.9c-7.2,14.4-15.6,26.1-25.2,34.8c-9.7,8.8-20.5,15.5-32.6,20.1c-12.1,4.6-25.7,6.9-40.9,6.9
			c-33.7,0-60-11-78.9-33.1c-19-22-28.4-46.9-28.4-74.7c0-26.2,8-49.6,24.1-70.1c20.3-26.1,47.7-39.2,81.9-39.2
			c35,0,63.1,13.4,84.2,40.1c14.9,18.8,22.5,42.3,22.6,70.5H725.8c0.5,24.1,8.2,43.9,23,59.2c14.8,15.4,33.1,23.1,54.8,23.1
			c10.5,0,20.8-1.9,30.7-5.6c9.9-3.7,18.4-8.6,25.3-14.6C866.6,325.1,874.1,315.3,882.3,301.7z M882.3,246.1
			c-3.5-14.2-8.7-25.5-15.4-34s-15.8-15.3-26.9-20.5c-11.2-5.2-22.9-7.8-35.2-7.8c-20.2,0-37.6,6.5-52.2,19.6
			c-10.5,9.5-18.5,23.8-23.9,42.8H882.3z"/>
		<path d="M972.2,296.8l-0.4-22c-0.4-10.8,0.1-20,1.3-27.5c2.8-23.7,8.8-41.1,18.1-52.2c9-9.7,18.3-17.1,27.7-22.4
			c15.6-6.7,33.3-9.8,53.3-9.4c15.6,0,30,3.9,43.2,11.8c13.2,7.9,22.7,18.4,28.3,31.6c5.7,13.2,8.5,34,8.5,62.3v106.2h-26.4v-98.5
			c0-23.9-1-39.8-3-47.8c-3.1-13.7-9.4-23.4-18.6-29.1c-9.3-5.7-23-8.6-41.3-8.6c-16.1,0-30.4,4.6-42.9,13.9
			c-12.6,9.3-18.4,22-17.5,38.1c-2.4,10.3-3.6,29.1-3.6,56.3v75.7h-26.7V296.8z"/>
	</g>
	<g>
		<path d="M495.4,406v50.5l-2,2.5h-0.3v-51.1C494.2,406.6,494.9,406,495.4,406z"/>
		<path d="M548.6,416.4h1.5c8.1,0,14.7,4.2,19.9,12.5c1.6,3.6,2.5,6.9,2.5,9.9l-0.2,4.4v13.5l-2,2.4h-0.2v-19.5
			c0-8.5-4.2-14.9-12.5-19.2c-2.8-1-5.2-1.5-7.1-1.5h-2.5c-3.4,0-6.9,1.2-10.3,3.6v34.5l-2,2.2h-0.2v-38
			C539.6,417.9,543.9,416.4,548.6,416.4z"/>
		<path d="M624.9,416.4h1.5c8.1,0,14.7,4.2,19.9,12.5c1.6,3.6,2.5,6.9,2.5,9.9l-0.2,4.4v13.5l-2,2.4h-0.2v-19.5
			c0-8.5-4.2-14.9-12.5-19.2c-2.8-1-5.2-1.5-7.1-1.5h-2.5c-3.4,0-6.9,1.2-10.3,3.6v34.5l-2,2.2H612v-38
			C616,417.9,620.3,416.4,624.9,416.4z"/>
		<path d="M709.4,416.7h0.1c8.4,0,14.8,4.1,19.3,12.4c1.2,3,1.8,5.8,1.8,8.7v0.1c0,8.4-4.1,14.8-12.4,19.3c-3,1.2-5.9,1.8-8.7,1.8
			h-0.1c-8.4,0-14.8-4.1-19.3-12.4c-1.2-3-1.8-5.8-1.8-8.7v-0.1c0-8.4,4.1-14.8,12.4-19.3C703.8,417.3,706.7,416.7,709.4,416.7z
			 M690.6,437.9c0,7.2,3.6,12.9,10.8,17c2.7,1.2,5.5,1.8,8.5,1.8c6.5,0,11.8-3.1,16-9.3c1.7-3.1,2.6-6.2,2.6-9.3v-0.7
			c0-6.5-3-11.8-9.1-15.8c-2.9-1.9-6.3-2.8-9.9-2.8c-6.6,0-11.9,3-16,9.1C691.6,431,690.6,434.3,690.6,437.9z"/>
		<path d="M807.6,416.2c0.7,1.4,1,2.3,1,2.7l-18,40.1h-2.4c-0.5-0.6-6.5-14.1-18.1-40.3c0.6-1.2,1.1-1.9,1.3-2
			c0.4,0.5,6.4,13.7,17.8,39.8c0.6-0.7,6.2-13.3,17-38L807.6,416.2z"/>
		<path d="M869.1,416.4h0.8c5,0,9.6,1.9,13.9,5.7v30.9c-4,3.9-8.8,5.9-14.4,5.9h-0.6c-7,0-12.8-3.3-17.5-10
			c-2.2-3.6-3.3-7.4-3.3-11.3c0-7.6,3.5-13.7,10.5-18.3C861.8,417.4,865.3,416.4,869.1,416.4z M868.3,418.7c-5.9,0-10.9,3-15,9
			c-1.9,3-2.8,6.3-2.8,10v0.2c0,7.5,3.9,13.3,11.6,17.4c2.7,0.9,4.8,1.3,6.4,1.3h1.6c4.4,0,8.3-1.6,11.8-4.7v-28.7
			c-4.1-3.1-8.3-4.6-12.5-4.6l-0.5,0.2v-0.2l-0.1,0.2H868.3z"/>
		<path d="M927.5,408.2h0.2v12.9h15.1c0.9,0.7,1.3,1.4,1.3,2.1h-16.4v7.8c0,8,1.2,13.2,3.5,15.9c0.9,1.8,2.6,3.8,5,6.1
			c3.5,2.4,6.2,3.7,8,3.9l0.5,0.1l0.1,0.1c0.3,0,0.5,0.1,0.5,0.3v0.1l-0.8,1.3h-0.3c-2.4,0-6-1.9-10.7-5.7
			c-5.5-5.8-8.2-12.2-8.2-19.3v-22.8C925.3,410.4,926.1,409.4,927.5,408.2z"/>
		<path d="M987.3,408.3h0.2c1,0.2,1.5,0.7,1.5,1.5v0.7c-0.4,0.7-0.9,1-1.5,1h-0.2c-1-0.1-1.5-0.6-1.5-1.5v-0.2
			C986,408.8,986.5,408.3,987.3,408.3z M987.8,416.2l0.2,0.2v6l0.1,20.5c0.8,4.8,2.4,8.8,4.8,11.8l2.2,2.3v0.2c0,0.4-0.3,1-0.9,1.8
			c-5.5-5-8.3-11-8.3-18v-23.2C986.1,417.5,986.8,416.9,987.8,416.2z"/>
		<path d="M1055.5,416.7h0.1c8.4,0,14.8,4.1,19.3,12.4c1.2,3,1.8,5.8,1.8,8.7v0.1c0,8.4-4.1,14.8-12.4,19.3c-3,1.2-5.9,1.8-8.7,1.8
			h-0.1c-8.4,0-14.8-4.1-19.3-12.4c-1.2-3-1.8-5.8-1.8-8.7v-0.1c0-8.4,4.1-14.8,12.4-19.3C1049.9,417.3,1052.8,416.7,1055.5,416.7z
			 M1036.8,437.9c0,7.2,3.6,12.9,10.8,17c2.7,1.2,5.5,1.8,8.5,1.8c6.5,0,11.8-3.1,16-9.3c1.7-3.1,2.6-6.2,2.6-9.3v-0.7
			c0-6.5-3-11.8-9.1-15.8c-2.9-1.9-6.3-2.8-9.9-2.8c-6.6,0-11.9,3-16,9.1C1037.7,431,1036.8,434.3,1036.8,437.9z"/>
		<path d="M1129.2,416.4h1.5c8.1,0,14.7,4.2,19.9,12.5c1.6,3.6,2.5,6.9,2.5,9.9l-0.2,4.4v13.5l-2,2.4h-0.2v-19.5
			c0-8.5-4.2-14.9-12.5-19.2c-2.8-1-5.2-1.5-7.1-1.5h-2.5c-3.4,0-6.9,1.2-10.3,3.6v34.5l-2,2.2h-0.2v-38
			C1120.3,417.9,1124.6,416.4,1129.2,416.4z"/>
	</g>
</g>
</svg>
